<svg width="110" height="111" viewBox="0 0 110 111" fill="none" xmlns="http://www.w3.org/2000/svg">
<g filter="url(#filter0_d_318_14300)">
<rect x="35" y="25.7979" width="40" height="40" rx="20" fill="#E27447"/>
</g>
<path d="M62.0001 42.7975H59.9999V45.7977C59.9999 48.5594 57.7612 50.7981 54.9996 50.7981C52.2379 50.7981 49.9992 48.5594 49.9992 45.7977V40.7974C49.9992 39.6927 49.1037 38.7972 47.999 38.7972V45.7977C47.999 49.664 51.1333 52.7982 54.9996 52.7982C58.8658 52.7982 62.0001 49.664 62.0001 45.7977V42.7975Z" fill="white"/>
<path d="M57.9995 38.7974V45.798C57.9995 47.4549 56.6562 48.7982 54.9993 48.7982C53.3423 48.7982 51.999 47.4549 51.999 45.798V40.8948C51.999 39.7365 52.9381 38.7974 54.0964 38.7974H57.9995Z" fill="white"/>
<path d="M62.0002 40.7975H60V38.7973H62.0002V40.7975Z" fill="white"/>
<defs>
<filter id="filter0_d_318_14300" x="0" y="0.797852" width="110" height="110" filterUnits="userSpaceOnUse" color-interpolation-filters="sRGB">
<feFlood flood-opacity="0" result="BackgroundImageFix"/>
<feColorMatrix in="SourceAlpha" type="matrix" values="0 0 0 0 0 0 0 0 0 0 0 0 0 0 0 0 0 0 127 0" result="hardAlpha"/>
<feOffset dy="10"/>
<feGaussianBlur stdDeviation="17.5"/>
<feComposite in2="hardAlpha" operator="out"/>
<feColorMatrix type="matrix" values="0 0 0 0 0.0196078 0 0 0 0 0.0627451 0 0 0 0 0.211765 0 0 0 0.1 0"/>
<feBlend mode="normal" in2="BackgroundImageFix" result="effect1_dropShadow_318_14300"/>
<feBlend mode="normal" in="SourceGraphic" in2="effect1_dropShadow_318_14300" result="shape"/>
</filter>
</defs>
</svg>
