<svg width="14" height="14" viewBox="0 0 14 14" fill="none" xmlns="http://www.w3.org/2000/svg">
<path d="M14.0001 3.99979H11.9999V7C11.9999 9.76164 9.76121 12.0004 6.99957 12.0004C4.23793 12.0004 1.99919 9.76164 1.99919 7V1.99962C1.99919 0.894945 1.1037 -0.000547503 -0.000976562 -0.000547503V7C-0.000976562 10.8663 3.13325 14.0005 6.99957 14.0005C10.8658 14.0005 14.0001 10.8663 14.0001 7V3.99979Z" fill="white"/>
<path d="M9.99948 -0.000433709V7.00011C9.99948 8.65707 8.65624 10.0004 6.99928 10.0004C5.34226 10.0004 3.99902 8.65707 3.99902 7.00011V2.09698C3.99902 0.938611 4.93807 -0.000433709 6.09644 -0.000433709H9.99948Z" fill="white"/>
<path d="M14.0002 1.99969H12V-0.000473712H14.0002V1.99969Z" fill="white"/>
</svg>
